<svg xmlns="http://www.w3.org/2000/svg" width="36" height="36" viewBox="0 0 36 36">
    <path fill="#5F8ABD" fill-rule="nonzero" d="M29.188 9H7.813A2.816 2.816 0 0 0 5 11.813v12.374A2.816 2.816 0 0 0 7.813 27h21.375A2.816 2.816 0 0 0 32 24.187V11.813A2.816 2.816 0 0 0 29.187 9zm-14.58 9.965l-7.012 5.454a.606.606 0 0 1-.374.126.6.6 0 0 1-.45-.196.522.522 0 0 1 .075-.769l7.012-5.454a.617.617 0 0 1 .824.07.522.522 0 0 1-.075.769zm4.301-.147c-.63 0-1.261-.191-1.81-.575l-9.395-6.542a.59.59 0 0 1-.15-.81.565.565 0 0 1 .796-.152l9.394 6.542c.707.492 1.621.492 2.329 0l9.394-6.542a.567.567 0 0 1 .796.152.59.59 0 0 1-.149.81l-9.394 6.542a3.159 3.159 0 0 1-1.81.575zm11.319 5.531a.6.6 0 0 1-.449.196.609.609 0 0 1-.374-.126l-7.013-5.454a.522.522 0 0 1-.075-.77.617.617 0 0 1 .824-.07l7.013 5.455c.247.193.28.538.074.77z"/>
</svg>
