<svg xmlns="http://www.w3.org/2000/svg" width="36" height="36" viewBox="0 0 36 36">
    <g fill="none" fill-rule="nonzero">
        <path fill="#000" d="M12 21.043v-1.088a.955.955 0 0 0-.956-.955h-1.09a.954.954 0 0 0-.954.955v1.088c0 .527.427.957.954.957h1.089c.527 0 .957-.43.957-.957zM26 19.955v1.088c0 .527.427.957.955.957h1.09a.956.956 0 0 0 .955-.957v-1.088a.955.955 0 0 0-.955-.955h-1.09a.955.955 0 0 0-.955.955z"/>
        <path fill="#12B995" d="M22.968 27.732h2.767c1.25 0 2.261-.993 2.261-2.22v-2.077h.29c1.498 0 2.714-1.194 2.714-2.664v-2.524c0-1.467-1.216-2.663-2.714-2.663h-.463a2.255 2.255 0 0 0-2.09-1.385h-3.974l1.268-3.507c.038.004.076.01.114.01.761 0 1.376-.604 1.376-1.349 0-.746-.617-1.35-1.376-1.35a1.36 1.36 0 0 0-1.373 1.35c0 .471.246.884.618 1.124L21.04 14.2H18.5l-2.542-.006-1.344-3.72c.37-.24.618-.654.618-1.123 0-.747-.617-1.35-1.375-1.35-.759 0-1.377.603-1.377 1.35 0 .744.616 1.35 1.377 1.35.038 0 .076-.008.113-.013l1.27 3.506h-3.978c-.949 0-1.755.573-2.09 1.386h-.46C7.216 15.579 6 16.773 6 18.24v2.524c0 1.468 1.216 2.662 2.712 2.662h.292v2.08c0 1.226 1.012 2.22 2.258 2.22h2.766c-.14.36 9.08.368 8.94.006zm7.126-9.485v2.524c0 .98-.81 1.776-1.81 1.776h-2.57c-.999 0-1.808-.797-1.808-1.776v-2.524c0-.979.81-1.775 1.809-1.775h2.57c.999 0 1.809.796 1.809 1.775zM6.903 20.766v-2.524c0-.979.811-1.774 1.809-1.774h2.571c.996 0 1.806.795 1.806 1.774v2.524c0 .977-.808 1.774-1.806 1.774H8.712c-.996.002-1.81-.795-1.81-1.774zm9.139 2.135H18.5l2.457.004c.942 0 1.707.582 1.707 1.301 0 .718-.763 1.301-1.707 1.301H18.5l-2.458-.001c-.943 0-1.707-.584-1.707-1.303 0-.718.764-1.302 1.707-1.302z"/>
    </g>
</svg>
