<svg xmlns="http://www.w3.org/2000/svg" width="36" height="36" viewBox="0 0 36 36">
    <path fill="none" fill-rule="nonzero" stroke="#0DB932" stroke-width="1.2" d="M10.33 17.986h.01l3.224.054-.082 8.57-.604-.01-2.618-.043c-.503 0-.86-.4-.86-.897l.07-6.783c0-.492.358-.89.86-.89zm9.02-1.681h4.698c1.413 0 2.552 1.085 2.552 2.459v.584l-.01.114-.977 5.071c-.222 1.166-1.283 2.002-2.513 2.002h-9.41v-9.099l.026-.176 2.23-7.25.043-.103a.93.93 0 0 1 .81-.507h.021l.176.007c1.327.096 2.355 1.15 2.355 2.452v4.446z"/>
</svg>
