<svg xmlns="http://www.w3.org/2000/svg" width="25" height="26" viewBox="0 0 25 26">
    <path fill="" d="M10.054 5.246c2.93 0 5.312 2.383 5.312 5.313 0 1.137-.367 2.245-1.04 3.156l5 4.207c.547.545.547 1.402.02 1.928-.255.255-.595.396-.955.396-.361 0-.7-.141-.955-.396l-4.226-5.02c-.91.674-2.02 1.041-3.156 1.041-2.93 0-5.313-2.383-5.313-5.312 0-2.93 2.383-5.313 5.313-5.313zM10 7.062c-1.898 0-3.438 1.54-3.438 3.438 0 1.898 1.54 3.438 3.438 3.438 1.898 0 3.438-1.54 3.438-3.438 0-1.898-1.54-3.438-3.438-3.438z" opacity=".5"/>
</svg>
